<svg viewBox="0 0 24 24" width="800px" height="800px" xmlns="http://www.w3.org/2000/svg">
  <path fill-rule="evenodd" d="M 1.7457858,1.7457627 H 8.3377955 V 8.3377725 H 1.7457858 Z M 3.9431223,3.9430993 V 6.1404359 H 6.1404589 V 3.9430993 Z" fill="#ff0000" />
  <path fill-rule="evenodd" d="m 15.662104,1.7457627 h 6.59201 v 6.5920098 h -6.59201 z m 2.197336,2.1973366 v 2.1973366 h 2.197338 V 3.9430993 Z" fill="#ff0000" />
  <path fill-rule="evenodd" d="m 1.7457858,15.662227 h 6.5920097 v 6.59201 H 1.7457858 Z m 2.1973365,2.197337 v 2.197337 h 2.1973366 v -2.197337 z" fill="#ff0000" />
  <rect x="1.7457857" y="10.901332" width="2.1973367" height="2.1973367" fill="#ff0000" />
  <rect x="6.1404591" y="10.901332" width="2.1973367" height="2.1973367" fill="#ff0000" />
  <rect x="10.779182" y="10.901332" width="2.1973367" height="2.1973367" fill="#ff0000" />
  <rect x="10.779182" y="15.479115" width="2.1973367" height="2.1973367" fill="#ff0000" />
  <rect x="10.779182" y="20.0569" width="2.1973367" height="2.1973367" fill="#ff0000" />
  <rect x="10.779182" y="6.3235474" width="2.1973367" height="2.1973367" fill="#ff0000" />
  <rect x="10.779182" y="1.7457627" width="2.1973367" height="2.1973367" fill="#ff0000" />
  <rect x="15.418052" y="10.901332" width="2.1973367" height="2.1973367" fill="#ff0000" />
  <rect x="20.056778" y="10.901332" width="2.1973367" height="2.1973367" fill="#ff0000" />
  <rect x="15.418052" y="15.479115" width="2.1973367" height="2.1973367" fill="#ff0000" />
  <rect x="20.056778" y="15.479115" width="2.1973367" height="2.1973367" fill="#ff0000" />
  <rect x="15.418052" y="20.0569" width="2.1973367" height="2.1973367" fill="#ff0000" />
  <rect x="20.056778" y="20.0569" width="2.1973367" height="2.1973367" fill="#ff0000" />
</svg>
