<?xml version="1.0" encoding="utf-8"?>
<!-- Generator: Adobe Illustrator 25.0.1, SVG Export Plug-In . SVG Version: 6.00 Build 0)  -->
<svg version="1.1" id="Layer_1" xmlns="http://www.w3.org/2000/svg" xmlns:xlink="http://www.w3.org/1999/xlink" x="0px" y="0px"
	 viewBox="0 0 200 200" style="enable-background:new 0 0 200 200;" xml:space="preserve">
<style type="text/css">
	.st0{enable-background:new    ;}
	.st1{fill:#D593CD;}
</style>
<g class="st0">
	<path class="st1" d="M28.5,105.4c0-28.8,8-50.2,24-64c13.4-11.5,29.7-17.3,48.9-17.3c21.4,0,38.9,7,52.4,21
		c13.6,14,20.4,33.4,20.4,58.1c0,20-3,35.8-9,47.2c-6,11.5-14.8,20.4-26.2,26.7c-11.5,6.4-24,9.5-37.6,9.5c-21.8,0-39.4-7-52.8-20.9
		C35.2,151.8,28.5,131.7,28.5,105.4z M55.5,105.4c0,19.9,4.3,34.8,13,44.8c8.7,9.9,19.6,14.9,32.8,14.9c13.1,0,24-5,32.7-14.9
		c8.7-10,13-25.1,13-45.6c0-19.2-4.4-33.8-13.1-43.7c-8.7-9.9-19.6-14.9-32.6-14.9c-13.2,0-24.1,4.9-32.8,14.8
		C59.9,70.6,55.5,85.5,55.5,105.4z"/>
</g>
</svg>
