<?xml version="1.0" encoding="utf-8"?>
<!-- Generator: Adobe Illustrator 25.0.1, SVG Export Plug-In . SVG Version: 6.00 Build 0)  -->
<svg version="1.1" id="Layer_1" xmlns="http://www.w3.org/2000/svg" xmlns:xlink="http://www.w3.org/1999/xlink" x="0px" y="0px"
	 viewBox="0 0 200 200" style="enable-background:new 0 0 200 200;" xml:space="preserve">
<style type="text/css">
	.st0{enable-background:new    ;}
	.st1{fill:#D593CD;}
</style>
<g class="st0">
	<path class="st1" d="M30.9,119.2c0-24.9,6.7-44.4,20.1-58.5c13.4-14.1,30.7-21.1,51.8-21.1c13.9,0,26.3,3.3,37.5,9.9
		c11.1,6.6,19.6,15.9,25.4,27.7s8.8,25.3,8.8,40.3c0,15.2-3.1,28.8-9.2,40.9c-6.1,12-14.8,21.1-26.1,27.3
		c-11.3,6.2-23.4,9.3-36.5,9.3c-14.1,0-26.8-3.4-37.9-10.2c-11.1-6.8-19.6-16.1-25.3-28C33.8,144.8,30.9,132.3,30.9,119.2z
		 M51.4,119.5c0,18.1,4.9,32.3,14.6,42.8c9.7,10.4,21.9,15.6,36.6,15.6c15,0,27.3-5.3,36.9-15.8c9.7-10.5,14.5-25.4,14.5-44.7
		c0-12.2-2.1-22.9-6.2-32c-4.1-9.1-10.2-16.2-18.1-21.2c-8-5-16.9-7.5-26.8-7.5c-14.1,0-26.2,4.8-36.3,14.5
		C56.4,80.8,51.4,96.9,51.4,119.5z M114.6,33H99.7L76.1,4.3h24.7L114.6,33z"/>
</g>
</svg>
