<?xml version="1.0" encoding="utf-8"?>
<!-- Generator: Adobe Illustrator 25.0.1, SVG Export Plug-In . SVG Version: 6.00 Build 0)  -->
<svg version="1.1" id="Layer_1" xmlns="http://www.w3.org/2000/svg" xmlns:xlink="http://www.w3.org/1999/xlink" x="0px" y="0px"
	 viewBox="0 0 200 200" style="enable-background:new 0 0 200 200;" xml:space="preserve">
<style type="text/css">
	.st0{enable-background:new    ;}
	.st1{fill:#D593CD;}
</style>
<g class="st0">
	<path class="st1" d="M190.6,146.4c-6.4,8.5-12.5,15.1-18.4,19.7c-5.9,4.6-13.4,8.7-22.3,12.2c-14.1,5.6-29.9,8.4-47.5,8.4
		c-16.1,0-31.2-2.5-45.3-7.6c-9.5-3.3-17.3-7.4-23.6-12.2c-6.2-4.8-13-11.9-20.2-21.2l6,0.1c8.6,8.1,15.5,13.7,20.7,16.9
		c5.2,3.1,12,5.7,20.3,7.8c14.8,3.7,28.9,5.6,42.3,5.6c34.7,0,61.7-9.9,81.2-29.6H190.6z"/>
</g>
</svg>
