<?xml version="1.0" encoding="utf-8"?>
<!-- Generator: Adobe Illustrator 25.0.1, SVG Export Plug-In . SVG Version: 6.00 Build 0)  -->
<svg version="1.1" id="Layer_1" xmlns="http://www.w3.org/2000/svg" xmlns:xlink="http://www.w3.org/1999/xlink" x="0px" y="0px"
	 viewBox="0 0 200 200" style="enable-background:new 0 0 200 200;" xml:space="preserve">
<style type="text/css">
	.st0{enable-background:new    ;}
	.st1{fill:#D593CD;}
</style>
<g class="st0">
	<path class="st1" d="M98.9,5.5c27.1,0,49.9,9.1,68.6,27.2c18.6,18.2,28,40.5,28,66.9c0,25.9-9.2,48.1-27.7,66.7
		s-40.5,27.9-66.2,27.9c-26.4,0-48.8-9.2-67.4-27.5c-18.6-18.3-27.8-40.5-27.8-66.6c0-26.2,9-48.5,27.1-67
		C51.5,14.8,73.4,5.5,98.9,5.5z M101.1,17.4C78.3,18.9,59.9,26,46.1,38.6C27.9,55,18.8,75.6,18.8,100.2c0,22.8,8,42,23.9,57.9
		S78,181.8,101,181.8L101.1,17.4z"/>
</g>
</svg>
