<?xml version="1.0" encoding="utf-8"?>
<!-- Generator: Adobe Illustrator 25.0.1, SVG Export Plug-In . SVG Version: 6.00 Build 0)  -->
<svg version="1.1" id="Layer_1" xmlns="http://www.w3.org/2000/svg" xmlns:xlink="http://www.w3.org/1999/xlink" x="0px" y="0px"
	 viewBox="0 0 200 200" style="enable-background:new 0 0 200 200;" xml:space="preserve">
<style type="text/css">
	.st0{enable-background:new    ;}
	.st1{fill:#D593CD;}
</style>
<g class="st0">
	<path class="st1" d="M6.7,96.8c0-25.7,9-47.5,27-65.6s39.9-27,65.5-27c14.8,0,28.9,3.5,42.3,10.6s24.6,16.9,33.8,29.4
		c9.7,13.2,15.1,29.2,16.3,47.9c0,1,0.1,2.4,0.3,4.4L179.5,97c-0.9-12.1-2.7-21.9-5.4-29.4s-7.1-14.9-13.3-22.3
		c-7.5-9-16.8-16-27.7-21.1s-22.3-7.6-34.1-7.6c-21.5,0-40.3,7.7-56.3,23.2C26.7,55.2,18.7,73.4,18.7,94.2v2.8L6.7,96.8z"/>
</g>
</svg>
