<?xml version="1.0" encoding="utf-8"?>
<!-- Generator: Adobe Illustrator 25.0.1, SVG Export Plug-In . SVG Version: 6.00 Build 0)  -->
<svg version="1.1" id="Layer_1" xmlns="http://www.w3.org/2000/svg" xmlns:xlink="http://www.w3.org/1999/xlink" x="0px" y="0px"
	 viewBox="0 0 200 200" style="enable-background:new 0 0 200 200;" xml:space="preserve">
<style type="text/css">
	.st0{enable-background:new    ;}
	.st1{fill:#D593CD;}
</style>
<g class="st0">
	<path class="st1" d="M21.2,92.8v2.8c0,20.8,8,38.9,24.1,54.4c16.1,15.5,34.8,23.2,56.3,23.2c11.8,0,23.2-2.5,34.1-7.6
		s20.2-12.1,27.7-21.1c6.1-7.3,10.6-14.7,13.3-22.3c2.7-7.5,4.5-17.3,5.4-29.4l12.3,0.4c-0.2,2-0.3,3.4-0.3,4.4
		c-1.2,18.8-6.6,34.7-16.3,47.9c-9.2,12.6-20.4,22.4-33.8,29.4s-27.4,10.6-42.3,10.6c-25.7,0-47.5-9-65.6-27s-27-39.9-27-65.6
		L21.2,92.8z"/>
</g>
</svg>
