<?xml version="1.0" encoding="utf-8"?>
<!-- Generator: Adobe Illustrator 25.1.0, SVG Export Plug-In . SVG Version: 6.00 Build 0)  -->
<svg version="1.1" id="Layer_1" xmlns="http://www.w3.org/2000/svg" xmlns:xlink="http://www.w3.org/1999/xlink" x="0px" y="0px"
             viewBox="0 0 500 350" style="enable-background:new 0 0 500 350;" xml:space="preserve">
  <style type="text/css">
    .fill-color {
      fill:#D593CD;
    }
    .stroke-color {
      stroke:#D593CD;
    }
    .st1{fill:none;stroke-width:2;stroke-miterlimit:10;}
    .st2{enable-background:new;}
    .st3{fill:transparent;stroke-width:1;stroke-miterlimit:10;}
    .st4{fill:transparent;stroke-width:1;stroke-miterlimit:10;}
    .st6{font-family:'fira-mono-regular';}
    .st7{font-size:10.1238px;}
  </style>
  <g>
    <path class="fill-color" d="M391,137c1.65,0,3,1.35,3,3v67H290v-67.01c0-1.65,1.34-2.99,2.99-2.99L391,137 M391,135h-98.01
      c-2.75,0-4.99,2.23-4.99,4.99v69c0,0.01,0.01,0.02,0.02,0.02h107.97c0.01,0,0.02-0.01,0.02-0.02V140C396,137.24,393.76,135,391,135
      L391,135z"/>
  </g>
  <g>
    <path class="fill-color" d="M151.26,137l6.44,5.52l6.3,5.4V207h-57v-70H151.26 M152,135h-47v74h61v-62l-7-6L152,135L152,135z"/>
  </g>
  <polyline class="st1 stroke-color" points="152,136.9 152,148 165,147.9 "/>
  <g class="st2">
    <path class="fill-color" d="M321.02,163.53c2.1,0,3.87,0.73,5.31,2.2c1.45,1.47,2.16,3.27,2.16,5.42c0,1.41-0.44,2.77-1.31,4.07
      c-0.67,1.01-1.57,1.81-2.68,2.4c-1.12,0.59-2.3,0.89-3.55,0.89c-2.03,0-3.78-0.74-5.26-2.22c-1.47-1.49-2.2-3.25-2.2-5.28
      c0-1.06,0.23-2.09,0.7-3.1c0.47-1.01,1.11-1.87,1.93-2.58C317.51,164.14,319.15,163.53,321.02,163.53z M321.02,164.51
      c-1.82,0-3.37,0.63-4.64,1.89c-1.27,1.26-1.9,2.8-1.9,4.6l6.52,0.03L321.02,164.51z"/>
  </g>
  <g class="st2">
    <path class="fill-color" d="M362.02,163.53c2.1,0,3.87,0.73,5.31,2.2c1.45,1.47,2.16,3.27,2.16,5.42c0,1.41-0.44,2.77-1.31,4.07
      c-0.67,1.01-1.57,1.81-2.68,2.4c-1.12,0.59-2.3,0.89-3.55,0.89c-2.03,0-3.78-0.74-5.26-2.22c-1.47-1.49-2.2-3.25-2.2-5.28
      c0-1.06,0.23-2.09,0.7-3.1c0.47-1.01,1.11-1.87,1.93-2.58C358.51,164.14,360.15,163.53,362.02,163.53z M362.02,164.51
      c-1.82,0-3.37,0.63-4.64,1.89c-1.27,1.26-1.9,2.8-1.9,4.6l6.52,0.03L362.02,164.51z"/>
  </g>
  <g class="st2">
    <path class="fill-color" d="M337,177.97l-0.01-1.01c2.07-0.14,3.75-0.84,5.01-2.12c1.27-1.27,1.9-2.89,1.9-4.84l1.07,0.03
      c-0.02,0.18-0.03,0.31-0.03,0.39c-0.06,0.94-0.23,1.78-0.52,2.5c-0.29,0.72-0.73,1.47-1.34,2.24c-0.65,0.81-1.53,1.49-2.63,2.02
      s-2.17,0.8-3.2,0.8C337.23,177.99,337.15,177.98,337,177.97z"/>
  </g>
  <path class="st4 loading-bar stroke-color" d="M195,182.92h-8c-1.1,0-2-0.53-2-1.18v-9.48c0-0.65,0.9-1.18,2-1.18h8c1.1,0,2,0.53,2,1.18v9.48
C197,182.39,196.1,182.92,195,182.92z"/>
  <path class="st3 loading-bar stroke-color" d="M213,182.92h-8c-1.1,0-2-0.53-2-1.18v-9.48c0-0.65,0.9-1.18,2-1.18h8c1.1,0,2,0.53,2,1.18v9.48
C215,182.39,214.1,182.92,213,182.92z"/>
  <path class="st3 loading-bar stroke-color" d="M231,182.92h-8c-1.1,0-2-0.53-2-1.18v-9.48c0-0.65,0.9-1.18,2-1.18h8c1.1,0,2,0.53,2,1.18v9.48
C233,182.39,232.1,182.92,231,182.92z"/>
  <path class="st3 loading-bar stroke-color" d="M249,182.92h-8c-1.1,0-2-0.53-2-1.18v-9.48c0-0.65,0.9-1.18,2-1.18h8c1.1,0,2,0.53,2,1.18v9.48
C251,182.39,250.1,182.92,249,182.92z"/>
  <path class="st3 loading-bar stroke-color" d="M267,182.92h-8c-1.1,0-2-0.53-2-1.18v-9.48c0-0.65,0.9-1.18,2-1.18h8c1.1,0,2,0.53,2,1.18v9.48
C269,182.39,268.1,182.92,267,182.92z"/>
</svg>
