<svg id="Layer_1" data-name="Layer 1" xmlns="http://www.w3.org/2000/svg" viewBox="0 0 512 512"><path d="M256,413.87a31.81,31.81,0,0,1-31.4-24.72L212.2,337.67a2.32,2.32,0,0,0-2.89-1.67L159,350.92a32.3,32.3,0,0,1-32.13-53.69l39.28-39.66a2.29,2.29,0,0,0,0-3.23L127,214.88a32.29,32.29,0,0,1,32.11-53.71l50.17,14.88a2.3,2.3,0,0,0,2.89-1.66l12.43-51.54A31.82,31.82,0,0,1,256,98.13h0a31.81,31.81,0,0,1,31.39,24.73l12.41,51.52a2.32,2.32,0,0,0,2.89,1.67l50.13-14.88A32.3,32.3,0,0,1,385,214.87l-39.14,39.47a2.31,2.31,0,0,0,0,3.23l39.27,39.66A32.3,32.3,0,0,1,353,350.92L302.72,336a2.2,2.2,0,0,0-1.8.21,2.23,2.23,0,0,0-1.08,1.45l-12.41,51.47A31.81,31.81,0,0,1,256,413.87Zm-46.1-107.95a32.26,32.26,0,0,1,31.43,24.7l12.44,51.49a2.29,2.29,0,0,0,4.46,0l12.41-51.47a32.3,32.3,0,0,1,40.59-23.39l50.24,14.91a2.3,2.3,0,0,0,2.29-3.82l-39.27-39.66a32.39,32.39,0,0,1,0-45.47l39.14-39.46a2.3,2.3,0,0,0-2.29-3.82l-50.13,14.88a32.28,32.28,0,0,1-40.58-23.4l-12.42-51.52a2,2,0,0,0-2.23-1.76h0a2,2,0,0,0-2.23,1.76l-12.44,51.53a32.3,32.3,0,0,1-40.58,23.39l-50.17-14.88a2.3,2.3,0,0,0-2.29,3.82l39.16,39.46a32.4,32.4,0,0,1,0,45.48l-39.29,39.65a2.3,2.3,0,0,0,2.29,3.82l50.28-14.92A32.45,32.45,0,0,1,209.93,305.92Z"/></svg>