<?xml version="1.0" encoding="UTF-8" standalone="no"?>
<svg
   width="1200pt"
   height="1200pt"
   version="1.1"
   viewBox="0 0 1200 1200"
   id="svg2"
   sodipodi:docname="learning-guide.svg"
   inkscape:version="1.3.2 (091e20e, 2023-11-25)"
   inkscape:export-filename="PROJECTS/netizen.org/netnet/netnet.studio/www/assets/images/menu/tutorials.png"
   inkscape:export-xdpi="30.780001"
   inkscape:export-ydpi="30.780001"
   xmlns:inkscape="http://www.inkscape.org/namespaces/inkscape"
   xmlns:sodipodi="http://sodipodi.sourceforge.net/DTD/sodipodi-0.dtd"
   xmlns="http://www.w3.org/2000/svg"
   xmlns:svg="http://www.w3.org/2000/svg">
  <defs
     id="defs2" />
  <sodipodi:namedview
     id="namedview2"
     pagecolor="#ffffff"
     bordercolor="#000000"
     borderopacity="0.25"
     inkscape:showpageshadow="2"
     inkscape:pageopacity="0.0"
     inkscape:pagecheckerboard="0"
     inkscape:deskcolor="#d1d1d1"
     inkscape:document-units="pt"
     inkscape:zoom="0.29517369"
     inkscape:cx="271.02687"
     inkscape:cy="924.87918"
     inkscape:window-width="1424"
     inkscape:window-height="811"
     inkscape:window-x="1578"
     inkscape:window-y="340"
     inkscape:window-maximized="0"
     inkscape:current-layer="g2" />
  <path
     d="m 983.37121,843.22089 c -17.00877,-0.2666 -43.93523,8.05121 -55.18606,-9.91748 -22.98055,-30.12506 -46.17494,-79.71244 -90.53673,-77.41929 v -0.0533 c -30.33891,-5.49188 -60.99746,7.5713 -78.05969,33.21787 l -55.87879,88.83051 c -4.58542,8.10455 -13.1163,13.16976 -22.39474,13.33015 -21.96705,0.37323 -42.44172,11.1438 -55.23839,29.00579 l -57.31884,78.27239 C 560.70676,1009.0447 555.5882,1021.6284 553.9889,1034.8516 404.31905,1018.5356 272.67828,928.63931 203.04164,795.17289 395.31019,760.0884 665.00712,603.54134 679.39627,595.06709 L 658.01502,558.49023 C 563.48005,613.67629 334.7882,731.51259 185.23209,755.87744 v -0.0533 c -19.195,-48.73428 -29.05925,-100.7206 -28.95232,-153.13918 -0.0533,-92.77529 30.49816,-182.9867 86.91043,-256.62726 22.07397,5.70515 62.06328,3.78565 73.63375,24.95407 10.82382,14.39597 1.9195,36.15031 -2.34606,51.40052 -0.90643,3.62574 -6.29164,30.12508 -7.1981,34.28484 h 0.0533 c -3.67906,23.51403 1.97285,47.50807 15.83602,66.86233 14.07634,25.75372 41.10974,41.69553 70.43515,41.48281 h 57.7454 c 23.14093,-0.31991 45.05452,-10.34403 60.30474,-27.72611 18.87537,-21.1674 44.14794,-47.13497 42.06862,-77.84698 v -79.5532 h 0.0533 c -0.0533,-7.89129 2.61268,-15.62218 7.5713,-21.75434 18.12919,-23.51402 52.94637,-56.62498 49.90702,-89.25706 l 0.0533,-0.0533 c 0.0533,-19.08808 -7.14475,-37.5369 -20.10157,-51.61324 -7.57131,-8.26448 -10.71725,-19.67501 -8.47777,-30.65854 l 3.99893,-18.82191 c 6.98482,-0.42656 13.7567,-0.63984 20.74084,-0.63984 89.5767,-0.31991 177.28791,25.48642 252.36171,74.27415 l 23.034,-35.56451 C 590.98633,9.6117583 167.89997,189.35208 119.48875,531.18128 c -165.8221,90.85636 -149.192117,290.5356 39.35004,269.69693 219.8866,458.10939 933.99761,319.12049 942.36961,-198.24032 h -42.2825 v 0.0533 c 0,86.00386 -26.3396,169.92841 -75.55387,240.52052 z"
     id="path2"
     style="stroke-width:1.13749;fill:#c76ebc;fill-opacity:1" />
  <g
     transform="matrix(5.2144849,0.0875008,-0.04884682,5.0114603,885.28252,-4584.3885)"
     id="g2"
     style="fill:#000000;fill-opacity:1;stroke:none">
    <path
       style="fill:none;fill-opacity:1;stroke:#1c1c36;stroke-width:8.23334273;stroke-linecap:round;stroke-linejoin:round;stroke-dasharray:none;stroke-opacity:1"
       d="m -28.517213,1016.6593 11.414066,16.4642 27.245477,-17.5082 7.517869,23.9125 45.568325,-72.08333 -84.228144,14.11172 19.5290897,16.38205 z"
       id="path5"
       sodipodi:nodetypes="cccccccc" />
  </g>
</svg>
