<svg id="Layer_1" data-name="Layer 1" xmlns="http://www.w3.org/2000/svg" viewBox="0 0 512 512"><path d="M256,15C122.9,15,15,122.89,15,256S122.9,497,256,497s241-107.9,241-241S389.1,15,256,15Zm73.52,252.84c0,1.48,0,2.94-.09,4.39a63.47,63.47,0,0,0,31.6-3.47,12.14,12.14,0,1,1,8.63,22.7,86.52,86.52,0,0,1-43.23,4.87,121,121,0,0,1-5.22,17.35A87.94,87.94,0,0,1,348,376.91a12.15,12.15,0,0,1-24.29,0,63.66,63.66,0,0,0-14.55-40.56C295.78,355.28,276.92,367.1,256,367.1s-39.78-11.81-53.17-30.75a63.68,63.68,0,0,0-14.55,40.56,12.15,12.15,0,0,1-24.29,0,87.93,87.93,0,0,1,26.81-63.24,119.18,119.18,0,0,1-5.21-17.28,86.64,86.64,0,0,1-43.25-4.94,12.14,12.14,0,1,1,8.63-22.7,63.52,63.52,0,0,0,31.6,3.53c0-1.48-.09-3-.09-4.45a133.25,133.25,0,0,1,1.86-22.14,87.73,87.73,0,0,1-47.08-24.44,12.14,12.14,0,0,1,17.17-17.17,63.45,63.45,0,0,0,36.34,18c7.09-18.41,18.33-33.42,32-42.81,0-.37-.11-.72-.11-1.1a31,31,0,0,0-30.93-30.93,12.14,12.14,0,0,1,0-24.28,55.24,55.24,0,0,1,54.46,46.51,54,54,0,0,1,19.52,0A55.24,55.24,0,0,1,320.22,123a12.14,12.14,0,0,1,0,24.28,31,31,0,0,0-30.93,30.93c0,.38-.08.73-.11,1.1,13.72,9.39,25,24.4,32.05,42.81a63.45,63.45,0,0,0,36.34-18,12.14,12.14,0,0,1,17.17,17.17,87.73,87.73,0,0,1-47.08,24.44A133.25,133.25,0,0,1,329.52,267.83Z"/></svg>