<svg id="Layer_1" data-name="Layer 1" xmlns="http://www.w3.org/2000/svg" viewBox="0 0 512 512"><circle cx="368.96" cy="74.05" r="30.65"/><circle cx="444.57" cy="120.84" r="30.65"/><circle cx="415.03" cy="203.54" r="30.65"/><path d="M320.51,118.49c-20.06,5.83-32.15,22.41-38.27,33.41l-3.95-4a24.06,24.06,0,0,0-34,0L228,164.23a154.41,154.41,0,1,0,72.51,259.12c47.1-47.1,57.25-117,30.79-174.12l7.14-7.14a24,24,0,0,0,0-34L317.15,186.8a23.52,23.52,0,0,0,5.15-7.62c2.12-5.28,7.57-13.33,11.68-14.48,2-.66,6.18,1.2,10.83,4.67a24.07,24.07,0,1,0,28.86-38.52C351.53,114.29,332.55,115,320.51,118.49Zm-107.58,144a30.65,30.65,0,1,1,0-43.34A30.65,30.65,0,0,1,212.93,262.47Z"/></svg>