<svg id="Layer_1" data-name="Layer 1" xmlns="http://www.w3.org/2000/svg" viewBox="0 0 512 512"><defs><style>.cls-1{fill:#fff;}</style></defs><path class="cls-1" d="M256,15C122.9,15,15,122.9,15,256S122.9,497,256,497,497,389.1,497,256,389.1,15,256,15Zm7.73,111.11a31.27,31.27,0,0,1,31.18,31.18c-1,17.67-14.55,31.19-31.18,31.19a31.19,31.19,0,1,1,0-62.37Zm-49.9,224.67c4.16-31.18,10.4-61.32,15.59-91.47,3.12-19.75-9.35-13.51-20.78-17.67-7.28-3.11-7.28-12.47,2.08-14.55,11.43-3.12,52-1,65.48-1,7.28,0,11.43,4.16,12.47,11.44,0,6.23-1,11.43-2.08,17.67-5.19,29.1-12.47,60.28-16.63,89.39,0,6.23,1,17.67,10.4,16.63,9.35,0,13.51-4.16,20.79-7.28,4.15-2.08,8.31,1,7.27,6.24C299.07,394.43,207.6,397.55,213.83,350.77Z"/></svg>