<svg id="Layer_1" data-name="Layer 1" xmlns="http://www.w3.org/2000/svg" viewBox="0 0 512 512"><defs><style>.cls-1{fill:#fff;}</style></defs><path class="cls-1" d="M256,15C122.9,15,15,122.9,15,256S122.9,497,256,497,497,389.1,497,256,389.1,15,256,15ZM365,362.63H147c-33.7,0-54.27-37-36.48-65.64l109-175.2c16.8-27,56.14-27,72.94,0l109,175.2C419.24,325.61,398.67,362.63,365,362.63Z"/><path class="cls-1" d="M252.89,260.66A24.05,24.05,0,0,0,277,236.6V173.79a24.07,24.07,0,0,0-48.13,0V236.6A24.06,24.06,0,0,0,252.89,260.66Z"/><path class="cls-1" d="M252.89,279.88a30.65,30.65,0,1,0,30.65,30.65A30.66,30.66,0,0,0,252.89,279.88Z"/></svg>