<svg id="Layer_1" data-name="Layer 1" xmlns="http://www.w3.org/2000/svg" viewBox="0 0 512 512"><defs><style>.cls-1{fill:#fff;}</style></defs><path class="cls-1" d="M164.72,225.35A30.65,30.65,0,1,0,195.37,256,30.65,30.65,0,0,0,164.72,225.35Z"/><path class="cls-1" d="M256,225.35A30.65,30.65,0,1,0,286.65,256,30.65,30.65,0,0,0,256,225.35Z"/><path class="cls-1" d="M377.93,256a30.65,30.65,0,1,0-30.65,30.65A30.65,30.65,0,0,0,377.93,256Z"/><path class="cls-1" d="M134.87,357.22C102,335.39,80.2,298.4,80.2,256S102,176.6,134.87,154.78C143,149.4,147.4,140,147.4,130.24v-.8c0-24.74-27.75-38.82-48.19-24.88a183.23,183.23,0,0,0,0,302.88c20.44,13.94,48.19-.14,48.19-24.88v-.81C147.4,372,143,362.6,134.87,357.22Z"/><path class="cls-1" d="M412.79,104.56c-20.44-13.94-48.19.14-48.19,24.88v.8c0,9.73,4.44,19.16,12.53,24.54C410,176.6,431.8,213.6,431.8,256S410,335.39,377.13,357.22C369,362.6,364.6,372,364.6,381.75v.81c0,24.74,27.75,38.82,48.19,24.88a183.23,183.23,0,0,0,0-302.88Z"/></svg>