<svg id="Layer_1" data-name="Layer 1" xmlns="http://www.w3.org/2000/svg" viewBox="0 0 512 512"><path d="M471.26,139.9c-15.73-1-31.46,10.73-36,25.37l-29.21,73.21c-7.87,12.69-19.1,2-18-3.9s23.6-145.44,23.6-145.44c3.37-14.64,1.12-29.28-15.74-32.21s-29.21,7.81-32.58,22.45c0,0-23.6,130.8-30.35,143.48s-13.48,8.79-13.48-1c0-5.86,11.24-163,11.24-163,1.12-14.64-5.62-28.3-22.47-29.28S283.6,40.34,282.48,55c0,0-16.85,153.24-18,164s-12.37,11.71-14.61,0-9-136.65-9-136.65C240.91,67.67,233,55,216.19,55s-24.73,12.69-24.73,27.33c0,0-1.12,127.87,0,151.29,1.13,25.38,2.25,88.82-16.85,90.78-18,1.95-46.07-16.6-61.8-37.09C99.33,270.7,75.73,260,51,262.89c-36,3.9-14.61,28.3,10.11,51.73,35.23,33.21,82.61,101.61,97.54,116.55,1.25,1.25,2.52,2.47,3.8,3.68a144.77,144.77,0,0,0,61.47,38.51c65.55,24.8,220.36,8.38,220.36-170.46,0-32.28,30.34-133.72,34.84-145.43C481.37,155.51,480.25,139.9,471.26,139.9Z"/></svg>