<svg id="Layer_1" data-name="Layer 1" xmlns="http://www.w3.org/2000/svg" viewBox="0 0 512 512"><defs><style>.cls-1{fill:#fff;}</style></defs><path class="cls-1" d="M471.26,136.83c-15.73-1-31.46,10.74-36,25.38l-29.21,73.2c-7.87,12.69-19.1,2-18-3.9s23.6-145.44,23.6-145.44c3.37-14.63,1.12-29.28-15.74-32.2s-29.21,7.81-32.58,22.44c0,0-23.6,130.8-30.35,143.49s-13.48,8.79-13.48-1c0-5.86,11.24-163,11.24-163,1.12-14.64-5.62-28.31-22.47-29.29S283.6,37.27,282.48,51.91c0,0-16.85,153.24-18,164s-12.37,11.71-14.61,0-9-136.65-9-136.65c0-14.64-7.87-27.32-24.72-27.32S191.46,64.6,191.46,79.24c0,0-1.12,127.87,0,151.3,1.13,25.37,2.25,88.82-16.85,90.77-18,1.95-46.07-16.59-61.8-37.09-13.48-16.59-37.08-27.33-61.8-24.4-36,3.9-14.61,28.31,10.11,51.73,35.23,33.21,82.61,101.61,97.54,116.55q1.88,1.88,3.8,3.69a144.76,144.76,0,0,0,61.47,38.5c65.55,24.8,220.36,8.39,220.36-170.45,0-32.29,30.34-133.73,34.84-145.44C481.37,152.45,480.25,136.83,471.26,136.83Z"/></svg>