<svg id="Layer_1" data-name="Layer 1" xmlns="http://www.w3.org/2000/svg" viewBox="0 0 512 512"><path d="M453.53,225.21s-23.13,0-44.28.08a155.26,155.26,0,0,0-23.14-55.85l30.72-30.73c10.77-10.77,12.85-28,3.9-40.3a30.81,30.81,0,0,0-46.83-3.85s-16.34,16.38-31.27,31.37a155.24,155.24,0,0,0-55.84-23.16V59.34c0-15.23-10.69-28.86-25.74-31.25a30.8,30.8,0,0,0-35.84,30.38s0,23.13.08,44.29a155.24,155.24,0,0,0-55.85,23.13L138.71,95.17c-10.77-10.77-28-12.85-40.29-3.9a30.8,30.8,0,0,0-3.86,46.83s16.38,16.34,31.37,31.27a155.42,155.42,0,0,0-23.16,55.84H59.34c-15.23,0-28.86,10.69-31.25,25.74a30.8,30.8,0,0,0,30.38,35.84s23.14,0,44.29-.08a155.24,155.24,0,0,0,23.13,55.85L95.17,373.29c-10.77,10.77-12.85,28-3.9,40.3a30.81,30.81,0,0,0,46.83,3.85s16.34-16.38,31.27-31.37a155.42,155.42,0,0,0,55.84,23.16v43.43c0,15.23,10.69,28.86,25.74,31.25a30.8,30.8,0,0,0,35.84-30.38s0-23.14-.08-44.29a155.24,155.24,0,0,0,55.85-23.13l30.73,30.72c10.77,10.77,28,12.85,40.3,3.9a30.81,30.81,0,0,0,3.85-46.83s-16.38-16.34-31.37-31.27a155.24,155.24,0,0,0,23.16-55.84h43.43c15.23,0,28.86-10.69,31.25-25.74A30.8,30.8,0,0,0,453.53,225.21ZM261.89,346.47a90.66,90.66,0,0,1-96.35-96.37c2.85-45.11,39.46-81.72,84.58-84.57a90.68,90.68,0,0,1,96.35,96.35C343.62,307,307,343.61,261.89,346.47Z"/></svg>