<svg id="Layer_1" data-name="Layer 1" xmlns="http://www.w3.org/2000/svg" viewBox="0 0 512 512"><defs><style>.cls-1{fill:#fff;}</style></defs><path class="cls-1" d="M463.2,65.47a30.06,30.06,0,0,0-42.53,0L224.05,262.08l-37.26-37.27a30.08,30.08,0,1,0-42.53,42.54l58.52,58.53a30.07,30.07,0,0,0,42.53,0L463.2,108A30.06,30.06,0,0,0,463.2,65.47Z"/><path class="cls-1" d="M339.21,308.55c-17.79,56.58-74.93,95.73-139.8,83.46-47.09-8.91-85.63-46.37-95.53-93.27C87.18,219.66,147.06,150,223.21,150a121.27,121.27,0,0,1,31.71,4.68l47.53-47.54h0A182.32,182.32,0,0,0,183.6,93.18C112.59,108.54,56,166.53,43.07,238,22.13,354.22,110.86,455.34,223.21,455.34A182,182,0,0,0,404,243.75Z"/></svg>