<svg id="Layer_1" data-name="Layer 1" xmlns="http://www.w3.org/2000/svg" viewBox="0 0 512 512"><path d="M409,234.53l-8.23,0A13.79,13.79,0,0,1,387,220.72v-72a13.63,13.63,0,0,0-13.62-13.64l-72.32,0a13.53,13.53,0,0,1-13.53-13.52c0-4.55,0-8.48,0-8.48,0-25.75-21.08-47.34-46.82-46.83a45.89,45.89,0,0,0-45,45.88s0,4.17,0,9a14,14,0,0,1-14,14l-72.27,0a13.2,13.2,0,0,0-13.19,13.2c0,27,0,86.26,0,86.26h22c25.75,0,47.34,21.08,46.83,46.82a45.89,45.89,0,0,1-45.89,45H96.25s0,58.76,0,86a13.52,13.52,0,0,0,13.52,13.52c27.19,0,85.93,0,85.93,0v-22c0-25.75,21.08-47.34,46.83-46.83a45.89,45.89,0,0,1,45,45.88v22.91s59.08,0,86.17,0a13.3,13.3,0,0,0,13.29-13.29c0-18.76,0-52.88,0-72.07a14.12,14.12,0,0,1,14.11-14.11h8.84a45.89,45.89,0,0,0,45.88-45C456.29,255.61,434.7,234.53,409,234.53Z"/></svg>