<?xml version="1.0" encoding="utf-8"?>
<!-- Generator: Adobe Illustrator 25.0.1, SVG Export Plug-In . SVG Version: 6.00 Build 0)  -->
<svg version="1.1" id="Layer_1" xmlns="http://www.w3.org/2000/svg" xmlns:xlink="http://www.w3.org/1999/xlink" x="0px" y="0px"
	 viewBox="0 0 200 200" style="enable-background:new 0 0 200 200;" xml:space="preserve">
<style type="text/css">
	.st0{enable-background:new    ;}
</style>
<g class="st0">
	<path d="M3,89.62C3,53.97,12.57,26.07,31.71,5.9c19.14-20.16,43.85-30.25,74.12-30.25c19.82,0,37.69,4.74,53.61,14.21
		c15.92,9.47,28.05,22.68,36.4,39.62c8.35,16.94,12.52,36.16,12.52,57.64c0,21.78-4.39,41.26-13.18,58.45
		c-8.79,17.19-21.24,30.2-37.35,39.04c-16.11,8.84-33.5,13.26-52.15,13.26c-20.21,0-38.28-4.88-54.2-14.65
		c-15.92-9.76-27.98-23.09-36.18-39.99C7.1,126.33,3,108.46,3,89.62z M32.29,90.05c0,25.88,6.96,46.27,20.87,61.16
		c13.92,14.89,31.37,22.34,52.37,22.34c21.39,0,38.99-7.52,52.81-22.56c13.82-15.04,20.73-36.38,20.73-64.01
		c0-17.48-2.96-32.74-8.86-45.78c-5.91-13.04-14.55-23.14-25.93-30.32C132.9,3.7,120.13,0.11,105.97,0.11
		c-20.12,0-37.43,6.91-51.93,20.73C39.54,34.66,32.29,57.73,32.29,90.05z M122.67-33.72h-21.24L67.6-74.74h35.3L122.67-33.72z"/>
</g>
</svg>
