<?xml version="1.0" encoding="utf-8"?>
<!-- Generator: Adobe Illustrator 25.0.1, SVG Export Plug-In . SVG Version: 6.00 Build 0)  -->
<svg version="1.1" id="Layer_1" xmlns="http://www.w3.org/2000/svg" xmlns:xlink="http://www.w3.org/1999/xlink" x="0px" y="0px"
	 viewBox="0 0 200 200" style="enable-background:new 0 0 200 200;" xml:space="preserve">
<style type="text/css">
	.st0{enable-background:new    ;}
</style>
<g class="st0">
	<path d="M23.21,92.84v2.78c0,20.8,8.03,38.94,24.1,54.42c16.06,15.48,34.84,23.22,56.32,23.22c11.81,0,23.19-2.54,34.13-7.62
		c10.94-5.08,20.16-12.11,27.69-21.09c6.15-7.32,10.57-14.74,13.26-22.27c2.68-7.52,4.47-17.33,5.35-29.44l12.3,0.44
		c-0.2,1.96-0.29,3.42-0.29,4.39c-1.17,18.75-6.59,34.72-16.26,47.9c-9.18,12.6-20.43,22.41-33.76,29.44s-27.42,10.55-42.26,10.55
		c-25.69,0-47.53-9.01-65.55-27.03S11.2,118.67,11.2,92.98L23.21,92.84z"/>
</g>
</svg>
