<?xml version="1.0" encoding="utf-8"?>
<!-- Generator: Adobe Illustrator 25.0.1, SVG Export Plug-In . SVG Version: 6.00 Build 0)  -->
<svg version="1.1" id="Layer_1" xmlns="http://www.w3.org/2000/svg" xmlns:xlink="http://www.w3.org/1999/xlink" x="0px" y="0px"
	 viewBox="0 0 200 200" style="enable-background:new 0 0 200 200;" xml:space="preserve">
<style type="text/css">
	.st0{enable-background:new    ;}
</style>
<g class="st0">
	<path d="M203.09-35.34c3.61,14.85,6.3,29.1,8.06,42.77c1.76,13.67,2.64,26.91,2.64,39.7c0,45.41-9.69,81.88-29.08,109.42
		c-19.39,27.54-45.44,41.31-78.15,41.31c-31.35,0-56.32-13.89-74.93-41.67C13.03,128.41,3.73,92.11,3.73,47.28
		c0-12.79,0.88-26.05,2.64-39.77c1.76-13.72,4.49-28,8.2-42.85H203.09z M35.81-12.92c-2.83,11.52-4.93,23.1-6.3,34.72
		c-1.37,11.62-2.05,22.51-2.05,32.67c0,17.48,1.9,33.57,5.71,48.27c3.81,14.7,9.2,27.39,16.19,38.09
		c6.98,10.69,15.33,19.04,25.05,25.05c9.72,6.01,20.43,9.01,32.15,9.01c12.69,0,24.19-3.12,34.5-9.38
		c10.3-6.25,19.07-14.92,26.29-26c7.23-11.08,12.82-24.27,16.77-39.55c3.96-15.28,5.93-31.96,5.93-50.02
		c0-9.47-0.59-19.65-1.76-30.54c-1.17-10.89-2.93-21.65-5.27-32.3H35.81z"/>
</g>
</svg>
