<?xml version="1.0" encoding="utf-8"?>
<!-- Generator: Adobe Illustrator 25.0.1, SVG Export Plug-In . SVG Version: 6.00 Build 0)  -->
<svg version="1.1" id="Layer_1" xmlns="http://www.w3.org/2000/svg" xmlns:xlink="http://www.w3.org/1999/xlink" x="0px" y="0px"
	 viewBox="0 0 200 200" style="enable-background:new 0 0 200 200;" xml:space="preserve">
<style type="text/css">
	.st0{enable-background:new    ;}
</style>
<g class="st0">
	<path d="M-1.54,116.42c0-28.81,8.01-50.15,24.02-64.01C35.86,40.89,52.16,35.12,71.4,35.12c21.39,0,38.87,7.01,52.44,21.02
		c13.57,14.01,20.36,33.38,20.36,58.08c0,20.02-3,35.77-9.01,47.24c-6.01,11.48-14.75,20.39-26.22,26.73
		c-11.48,6.35-24,9.52-37.57,9.52c-21.78,0-39.38-6.98-52.81-20.95C5.17,162.81-1.54,142.69-1.54,116.42z M25.55,116.42
		c0,19.92,4.34,34.84,13.04,44.75c8.69,9.91,19.63,14.87,32.81,14.87c13.08,0,23.97-4.98,32.67-14.94
		c8.69-9.96,13.04-25.14,13.04-45.56c0-19.24-4.37-33.81-13.11-43.73c-8.74-9.91-19.61-14.87-32.59-14.87
		c-13.18,0-24.12,4.93-32.81,14.79C29.9,81.61,25.55,96.5,25.55,116.42z"/>
</g>
</svg>
