<?xml version="1.0" encoding="utf-8"?>
<!-- Generator: Adobe Illustrator 25.0.1, SVG Export Plug-In . SVG Version: 6.00 Build 0)  -->
<svg version="1.1" id="Layer_1" xmlns="http://www.w3.org/2000/svg" xmlns:xlink="http://www.w3.org/1999/xlink" x="0px" y="0px"
	 viewBox="0 0 200 200" style="enable-background:new 0 0 200 200;" xml:space="preserve">
<style type="text/css">
	.st0{enable-background:new    ;}
	.st1{fill:#D593CD;}
</style>
<g class="st0">
	<path class="st1" d="M26.4,120.2c0-25.8,6.9-46,20.8-60.6C61,45,78.9,37.7,100.8,37.7c14.3,0,27.3,3.4,38.8,10.3
		c11.5,6.9,20.3,16.4,26.3,28.7c6,12.3,9.1,26.2,9.1,41.7c0,15.8-3.2,29.9-9.5,42.3c-6.4,12.4-15.4,21.9-27,28.3s-24.2,9.6-37.7,9.6
		c-14.6,0-27.7-3.5-39.2-10.6c-11.5-7.1-20.3-16.7-26.2-28.9C29.3,146.7,26.4,133.8,26.4,120.2z M47.6,120.5
		c0,18.7,5,33.5,15.1,44.3c10.1,10.8,22.7,16.2,37.9,16.2c15.5,0,28.2-5.4,38.2-16.3c10-10.9,15-26.3,15-46.3
		c0-12.7-2.1-23.7-6.4-33.1c-4.3-9.4-10.5-16.7-18.8-21.9s-17.5-7.8-27.7-7.8c-14.6,0-27.1,5-37.6,15S47.6,97.1,47.6,120.5z
		 M87.6,30.9l14.1-29.7h25l-23.3,29.7C103.4,30.9,87.6,30.9,87.6,30.9z"/>
</g>
</svg>
