<?xml version="1.0" encoding="utf-8"?>
<!-- Generator: Adobe Illustrator 25.0.1, SVG Export Plug-In . SVG Version: 6.00 Build 0)  -->
<svg version="1.1" id="Layer_1" xmlns="http://www.w3.org/2000/svg" xmlns:xlink="http://www.w3.org/1999/xlink" x="0px" y="0px"
	 viewBox="0 0 200 200" style="enable-background:new 0 0 200 200;" xml:space="preserve">
<style type="text/css">
	.st0{enable-background:new    ;}
</style>
<g class="st0">
	<path d="M141.8,120.4c0,53.7-37.2,77.1-72.3,77.1c-39.3,0-69.6-28.8-69.6-74.7c0-48.6,31.8-77.1,72-77.1
		C113.6,45.7,141.8,76,141.8,120.4z M26.59,121.9c0,31.8,18.3,55.8,44.1,55.8c25.2,0,44.1-23.7,44.1-56.4
		c0-24.6-12.3-55.8-43.5-55.8S26.59,94.3,26.59,121.9z M49.09-10.4c1.8,11.7,9.3,20.7,21.6,20.7c14.1,0,20.7-10.8,21.6-20.7h15.6
		c0,22.2-14.7,37.2-37.2,37.2c-26.4,0-37.2-18.6-37.2-37.2H49.09z"/>
</g>
</svg>
