<?xml version="1.0" encoding="utf-8"?>
<!-- Generator: Adobe Illustrator 25.0.1, SVG Export Plug-In . SVG Version: 6.00 Build 0)  -->
<svg version="1.1" id="Layer_1" xmlns="http://www.w3.org/2000/svg" xmlns:xlink="http://www.w3.org/1999/xlink" x="0px" y="0px"
	 viewBox="0 0 200 200" style="enable-background:new 0 0 200 200;" xml:space="preserve">
<style type="text/css">
	.st0{enable-background:new    ;}
	.st1{fill:#D593CD;}
</style>
<g class="st0">
	<path class="st1" d="M166.1,125.2c0,49.4-34.2,70.9-66.5,70.9c-36.1,0-64-26.5-64-68.7c0-44.7,29.2-70.9,66.2-70.9
		C140.1,56.6,166.1,84.4,166.1,125.2z M60.2,126.6c0,29.2,16.8,51.3,40.5,51.3c23.2,0,40.5-21.8,40.5-51.8c0-22.6-11.3-51.3-40-51.3
		S60.2,101.2,60.2,126.6z M80.8,5c1.7,10.8,8.5,19,19.9,19c13,0,19-9.9,19.9-19h14.3c0,20.4-13.5,34.2-34.2,34.2
		C76.4,39.2,66.5,22.1,66.5,5H80.8z"/>
</g>
</svg>
