<?xml version="1.0" encoding="utf-8"?>
<!-- Generator: Adobe Illustrator 25.0.1, SVG Export Plug-In . SVG Version: 6.00 Build 0)  -->
<svg version="1.1" id="Layer_1" xmlns="http://www.w3.org/2000/svg" xmlns:xlink="http://www.w3.org/1999/xlink" x="0px" y="0px"
	 viewBox="0 0 200 200" style="enable-background:new 0 0 200 200;" xml:space="preserve">
<style type="text/css">
	.st0{enable-background:new    ;}
	.st1{fill:#D593CD;}
</style>
<g class="st0">
	<path class="st1" d="M180.9,1c3.1,12.6,5.3,24.7,6.8,36.3c1.5,11.6,2.2,22.8,2.2,33.7c0,38.5-8.2,69.5-24.7,92.8s-38.6,35-66.3,35
		c-26.6,0-47.8-11.8-63.6-35.4c-15.8-23.6-23.7-54.4-23.7-92.4c0-10.9,0.7-22.1,2.2-33.7s3.8-23.8,7-36.4H180.9z M38.9,20
		c-2.4,9.8-4.2,19.6-5.3,29.5s-1.7,19.1-1.7,27.7c0,14.8,1.6,28.5,4.8,41c3.2,12.5,7.8,23.2,13.7,32.3c5.9,9.1,13,16.2,21.3,21.3
		c8.2,5.1,17.3,7.6,27.3,7.6c10.8,0,20.5-2.6,29.3-8c8.7-5.3,16.2-12.7,22.3-22.1c6.1-9.4,10.9-20.6,14.2-33.6c3.4-13,5-27.1,5-42.4
		c0-8-0.5-16.7-1.5-25.9s-2.5-18.4-4.5-27.4L38.9,20L38.9,20z"/>
</g>
</svg>
