<?xml version="1.0" encoding="utf-8"?>
<!-- Generator: Adobe Illustrator 25.0.1, SVG Export Plug-In . SVG Version: 6.00 Build 0)  -->
<svg version="1.1" id="Layer_1" xmlns="http://www.w3.org/2000/svg" xmlns:xlink="http://www.w3.org/1999/xlink" x="0px" y="0px"
	 viewBox="0 0 200 200" style="enable-background:new 0 0 200 200;" xml:space="preserve">
<style type="text/css">
	.st0{enable-background:new    ;}
</style>
<g class="st0">
	<path d="M190.64,196.4c-6.35,8.5-12.48,15.06-18.38,19.7c-5.91,4.64-13.36,8.72-22.34,12.23c-14.06,5.57-29.88,8.35-47.46,8.35
		c-16.11,0-31.2-2.54-45.26-7.62c-9.47-3.32-17.34-7.38-23.58-12.16c-6.25-4.79-12.99-11.87-20.21-21.24l6.01,0.15
		c8.59,8.1,15.5,13.72,20.73,16.85c5.22,3.12,11.99,5.71,20.29,7.76c14.84,3.71,28.95,5.57,42.33,5.57
		c34.67,0,61.72-9.87,81.15-29.59H190.64z"/>
</g>
</svg>
