<?xml version="1.0" encoding="utf-8"?>
<!-- Generator: Adobe Illustrator 25.0.1, SVG Export Plug-In . SVG Version: 6.00 Build 0)  -->
<svg version="1.1" id="Layer_1" xmlns="http://www.w3.org/2000/svg" xmlns:xlink="http://www.w3.org/1999/xlink" x="0px" y="0px"
	 viewBox="0 0 200 200" style="enable-background:new 0 0 200 200;" xml:space="preserve">
<style type="text/css">
	.st0{enable-background:new    ;}
	.st1{fill:#D593CD;}
</style>
<g class="st0">
	<path class="st1" d="M99.6,5.5c24.8,0,46,7.9,63.4,23.6c9.7,8.8,17.3,19.5,23,32c5.7,12.5,8.5,25.1,8.5,37.7
		c0,26.4-9.2,48.8-27.6,67.2c-18.4,18.5-40.8,27.7-67,27.7c-26,0-48.2-9.2-66.5-27.6C15,147.7,5.9,125.5,5.9,99.3
		c0-25.7,9.2-47.7,27.6-66.1C51.9,14.7,73.9,5.5,99.6,5.5z M99,17.4c-7.5,0-15.9,1.6-25,4.7S57.1,29.2,50.8,34
		c-10.3,7.8-18.5,17.6-24.3,29.3s-8.8,24.1-8.8,37.1c0,22,8.1,41,24.2,57.1s35.1,24.2,57,24.2c23.2,0,43-7.9,59.2-23.7
		c16.2-15.8,24.3-35,24.3-57.6c0-23.2-8-42.9-24.1-58.9S122.4,17.4,99,17.4z M99.8,38.2c17.3,0,31.9,5.9,43.7,17.7
		c11.9,11.8,17.8,26.3,17.8,43.5c0,17.5-5.9,32.1-17.6,43.9c-11.8,11.8-26.4,17.7-43.9,17.7c-15.1,0-28.8-5.4-41-16.1
		c-6-5.2-10.8-11.8-14.6-19.9c-3.8-8.1-5.7-15.8-5.7-23c0-18,5.9-33.1,17.8-45.4S82.6,38.2,99.8,38.2z"/>
</g>
</svg>
