<?xml version="1.0" encoding="utf-8"?>
<!-- Generator: Adobe Illustrator 25.0.1, SVG Export Plug-In . SVG Version: 6.00 Build 0)  -->
<svg version="1.1" id="Layer_1" xmlns="http://www.w3.org/2000/svg" xmlns:xlink="http://www.w3.org/1999/xlink" x="0px" y="0px"
	 viewBox="0 0 200 200" style="enable-background:new 0 0 200 200;" xml:space="preserve">
<style type="text/css">
	.st0{enable-background:new    ;}
</style>
<g class="st0">
	<path d="M99.6,5.53c24.8,0,45.95,7.86,63.43,23.58c9.67,8.79,17.33,19.46,23,32.01c5.66,12.55,8.5,25.12,8.5,37.72
		c0,26.37-9.21,48.78-27.61,67.24c-18.41,18.46-40.75,27.69-67.02,27.69c-25.98,0-48.15-9.2-66.5-27.61
		c-18.36-18.41-27.54-40.7-27.54-66.87c0-25.68,9.2-47.73,27.61-66.14C51.87,14.74,73.92,5.53,99.6,5.53z M99.02,17.4
		c-7.52,0-15.87,1.56-25.05,4.69c-9.18,3.13-16.9,7.08-23.14,11.87c-10.35,7.81-18.46,17.58-24.32,29.3s-8.79,24.07-8.79,37.06
		c0,21.97,8.06,41.02,24.17,57.13s35.11,24.17,56.98,24.17c23.24,0,42.97-7.88,59.18-23.66c16.21-15.77,24.32-34.98,24.32-57.64
		c0-23.24-8.03-42.87-24.1-58.89C142.2,25.41,122.45,17.4,99.02,17.4z M99.75,38.2c17.29,0,31.86,5.91,43.73,17.72
		c11.87,11.82,17.8,26.32,17.8,43.51c0,17.48-5.88,32.13-17.65,43.95c-11.77,11.82-26.39,17.72-43.87,17.72
		c-15.14,0-28.81-5.37-41.02-16.11c-5.96-5.17-10.84-11.81-14.65-19.92c-3.81-8.1-5.71-15.77-5.71-23c0-17.97,5.93-33.11,17.8-45.41
		S82.56,38.2,99.75,38.2z"/>
</g>
</svg>
