<?xml version="1.0" encoding="utf-8"?>
<!-- Generator: Adobe Illustrator 25.0.1, SVG Export Plug-In . SVG Version: 6.00 Build 0)  -->
<svg version="1.1" id="Layer_1" xmlns="http://www.w3.org/2000/svg" xmlns:xlink="http://www.w3.org/1999/xlink" x="0px" y="0px"
	 viewBox="0 0 200 200" style="enable-background:new 0 0 200 200;" xml:space="preserve">
<style type="text/css">
	.st0{enable-background:new    ;}
</style>
<g class="st0">
	<path d="M98.94,5.53c27.05,0,49.9,9.08,68.55,27.25c18.65,18.16,27.98,40.48,27.98,66.94c0,25.88-9.23,48.12-27.69,66.72
		s-40.53,27.91-66.21,27.91c-26.37,0-48.83-9.16-67.38-27.47c-18.56-18.31-27.83-40.5-27.83-66.58c0-26.17,9.03-48.51,27.1-67.02
		C51.53,14.79,73.36,5.53,98.94,5.53z M101.14,17.4c-22.85,1.46-41.21,8.55-55.08,21.24C27.9,55.04,18.82,75.55,18.82,100.16
		c0,22.76,7.96,42.04,23.88,57.86c15.92,15.82,35.35,23.73,58.3,23.73L101.14,17.4z"/>
</g>
</svg>
