<?xml version="1.0" encoding="utf-8"?>
<!-- Generator: Adobe Illustrator 25.0.1, SVG Export Plug-In . SVG Version: 6.00 Build 0)  -->
<svg version="1.1" id="Layer_1" xmlns="http://www.w3.org/2000/svg" xmlns:xlink="http://www.w3.org/1999/xlink" x="0px" y="0px"
	 viewBox="0 0 200 200" style="enable-background:new 0 0 200 200;" xml:space="preserve">
<style type="text/css">
	.st0{enable-background:new    ;}
</style>
<g class="st0">
	<path d="M100.33,6.85c26.27,0,48.44,9.21,66.5,27.61c18.07,18.41,27.1,41.04,27.1,67.9c0,17.68-5.47,34.67-16.41,50.98
		c-8.4,12.6-19.61,22.58-33.62,29.96c-14.01,7.38-28.83,11.06-44.46,11.06c-25.39,0-47.31-9.28-65.77-27.83
		C15.23,147.97,6,125.94,6,100.46c0-13.28,2.93-26.22,8.79-38.82S28.7,38.3,38.96,29.41C56.34,14.37,76.8,6.85,100.33,6.85z
		 M100.33,19.01c-22.85,0-42.21,7.89-58.08,23.66c-15.87,15.77-23.8,34.99-23.8,57.64l81.59,0.44L100.33,19.01z"/>
</g>
</svg>
