<?xml version="1.0" encoding="utf-8"?>
<!-- Generator: Adobe Illustrator 25.0.1, SVG Export Plug-In . SVG Version: 6.00 Build 0)  -->
<svg version="1.1" id="Layer_1" xmlns="http://www.w3.org/2000/svg" xmlns:xlink="http://www.w3.org/1999/xlink" x="0px" y="0px"
	 viewBox="0 0 200 200" style="enable-background:new 0 0 200 200;" xml:space="preserve">
<style type="text/css">
	.st0{enable-background:new    ;}
	.st1{fill:#D593CD;}
</style>
<g class="st0">
	<path class="st1" d="M100.3,6.8c26.3,0,48.4,9.2,66.5,27.6c18.1,18.4,27.1,41,27.1,67.9c0,17.7-5.5,34.7-16.4,51
		c-8.4,12.6-19.6,22.6-33.6,30c-14,7.4-28.8,11.1-44.5,11.1c-25.4,0-47.3-9.3-65.8-27.8C15.2,148,6,125.9,6,100.5
		c0-13.3,2.9-26.2,8.8-38.8S28.7,38.3,39,29.4C56.3,14.4,76.8,6.8,100.3,6.8z M100.3,19c-22.8,0-42.2,7.9-58.1,23.7
		s-23.8,35-23.8,57.6l81.6,0.4L100.3,19z"/>
</g>
</svg>
