<?xml version="1.0" encoding="utf-8"?>
<!-- Generator: Adobe Illustrator 25.0.1, SVG Export Plug-In . SVG Version: 6.00 Build 0)  -->
<svg version="1.1" id="Layer_1" xmlns="http://www.w3.org/2000/svg" xmlns:xlink="http://www.w3.org/1999/xlink" x="0px" y="0px"
	 viewBox="0 0 200 200" style="enable-background:new 0 0 200 200;" xml:space="preserve">
<style type="text/css">
	.st0{enable-background:new    ;}
</style>
<g class="st0">
	<path d="M6.66,91.81c0-25.68,9.01-47.53,27.03-65.55S73.55-0.77,99.24-0.77c14.84,0,28.93,3.52,42.26,10.55
		s24.58,16.85,33.76,29.44c9.67,13.18,15.09,29.15,16.26,47.9c0,0.98,0.1,2.44,0.29,4.39l-12.3,0.44
		c-0.88-12.11-2.66-21.92-5.35-29.44c-2.69-7.52-7.1-14.94-13.26-22.27c-7.52-8.98-16.75-16.01-27.69-21.09
		c-10.94-5.08-22.32-7.62-34.13-7.62c-21.49,0-40.26,7.74-56.32,23.22c-16.07,15.48-24.1,33.62-24.1,54.42v2.78L6.66,91.81z"/>
</g>
</svg>
