<?xml version="1.0" encoding="utf-8"?>
<!-- Generator: Adobe Illustrator 25.0.1, SVG Export Plug-In . SVG Version: 6.00 Build 0)  -->
<svg version="1.1" id="Layer_1" xmlns="http://www.w3.org/2000/svg" xmlns:xlink="http://www.w3.org/1999/xlink" x="0px" y="0px"
	 viewBox="0 0 200 200" style="enable-background:new 0 0 200 200;" xml:space="preserve">
<style type="text/css">
	.st0{enable-background:new    ;}
</style>
<g class="st0">
	<path d="M99.38,16.94c10.45,0,21.02,2.15,31.71,6.45c10.69,4.3,19.5,9.96,26.44,16.99c18.07,18.26,27.1,39.75,27.1,64.45
		c0,22.56-8.2,42.09-24.61,58.59c-17.29,17.38-37.94,26.07-61.96,26.07c-26.17,0-48-10.11-65.48-30.32
		c-6.45-7.32-11.52-15.87-15.23-25.63c-3.71-9.76-5.57-19.34-5.57-28.71c0-24.8,8.42-45.65,25.27-62.55
		C53.9,25.39,74.67,16.94,99.38,16.94z M98.21,29.54c-20.41,0-37.77,7.28-52.08,21.83c-14.31,14.55-21.46,32.23-21.46,53.03
		c0,8.5,1.93,17.31,5.79,26.44c3.86,9.13,8.91,16.97,15.16,23.51c14.36,14.85,31.88,22.27,52.59,22.27
		c20.21,0,37.57-7.18,52.08-21.53s21.75-31.54,21.75-51.56c0-20.21-7.25-37.6-21.75-52.15C135.78,36.81,118.43,29.54,98.21,29.54z
		 M97.19,82.42c5.86,0,10.89,2.1,15.09,6.3c4.2,4.2,6.3,9.23,6.3,15.09c0,5.67-2.05,10.57-6.15,14.72
		c-4.1,4.15-8.99,6.23-14.65,6.23c-5.96,0-11.04-2.03-15.23-6.08c-4.2-4.05-6.3-8.91-6.3-14.58c0-5.96,2.07-11.06,6.23-15.31
		C86.61,84.54,91.52,82.42,97.19,82.42z"/>
</g>
</svg>
