<?xml version="1.0" encoding="utf-8"?>
<!-- Generator: Adobe Illustrator 25.0.1, SVG Export Plug-In . SVG Version: 6.00 Build 0)  -->
<svg version="1.1" id="Layer_1" xmlns="http://www.w3.org/2000/svg" xmlns:xlink="http://www.w3.org/1999/xlink" x="0px" y="0px"
	 viewBox="0 0 200 200" style="enable-background:new 0 0 200 200;" xml:space="preserve">
<style type="text/css">
	.st0{enable-background:new    ;}
	.st1{fill:#D593CD;}
</style>
<g class="st0">
	<path class="st1" d="M100.4,15.9c10.4,0,21,2.1,31.7,6.4s19.5,10,26.4,17c18.1,18.3,27.1,39.8,27.1,64.4c0,22.6-8.2,42.1-24.6,58.6
		c-17.3,17.4-37.9,26.1-62,26.1c-26.2,0-48-10.1-65.5-30.3c-6.5-7.3-11.5-15.9-15.2-25.6s-5.6-19.3-5.6-28.7
		c0-24.8,8.4-45.7,25.3-62.5C54.9,24.4,75.7,15.9,100.4,15.9z M99.2,28.5c-20.4,0-37.8,7.3-52.1,21.8s-21.5,32.2-21.5,53
		c0,8.5,1.9,17.3,5.8,26.4s8.9,17,15.2,23.5c14.4,14.9,31.9,22.3,52.6,22.3c20.2,0,37.6-7.2,52.1-21.5s21.8-31.5,21.8-51.6
		c0-20.2-7.2-37.6-21.8-52.2C136.8,35.8,119.4,28.5,99.2,28.5z M98.2,81.4c5.9,0,10.9,2.1,15.1,6.3c4.2,4.2,6.3,9.2,6.3,15.1
		c0,5.7-2.1,10.6-6.2,14.7s-9,6.2-14.7,6.2c-6,0-11-2-15.2-6.1c-4.2-4.1-6.3-8.9-6.3-14.6c0-6,2.1-11.1,6.2-15.3
		C87.6,83.5,92.5,81.4,98.2,81.4z"/>
</g>
</svg>
