<?xml version="1.0" encoding="utf-8"?>
<!-- Generator: Adobe Illustrator 25.0.1, SVG Export Plug-In . SVG Version: 6.00 Build 0)  -->
<svg version="1.1" id="Layer_1" xmlns="http://www.w3.org/2000/svg" xmlns:xlink="http://www.w3.org/1999/xlink" x="0px" y="0px"
	 viewBox="0 0 200 200" style="enable-background:new 0 0 200 200;" xml:space="preserve">
<style type="text/css">
	.st0{enable-background:new    ;}
</style>
<g class="st0">
	<path d="M249.18,225.71c-10.5,16.8-21,25.5-31.2,25.5c-4.2,0-11.4-4.5-21.3-13.2c-10.2-9-16.2-13.2-18-13.2s-6.9,4.2-15.9,13.2
		c-9.3,8.7-16.2,13.2-21,13.2c-3.6,0-10.8-4.5-21.3-13.2c-10.8-9-17.4-13.2-19.8-13.2c-1.5,0-6.9,4.2-16.5,13.2
		c-9.9,8.7-18,13.2-24,13.2c-4.2,0-11.4-4.5-21-13.2c-10.2-9-16.2-13.2-18-13.2c-1.8,0-7.2,4.2-16.2,13.2
		c-9,8.7-15.9,13.2-20.7,13.2c-7.2,0-16.8-8.1-29.1-24c-2.4-3-3.6-4.8-3.6-5.4c0-2.7,0.9-3.9,3.3-3.9c0.6,0,2.1,1.5,5.1,4.8
		c12,14.1,20.4,21.3,24.6,21.3c2.1,0,7.8-4.5,16.8-13.2c9-8.7,15.6-12.9,19.8-12.9c4.8,0,12,4.2,22.2,12.9
		c9.9,8.7,15.9,13.2,18,13.2c2.7,0,8.7-4.5,18-13.2c9.3-8.7,16.5-12.9,21.3-12.9c5.4,0,13.8,4.2,24.6,12.9
		c10.8,8.7,16.5,13.2,17.1,13.2c1.5,0,6.9-4.5,16.2-13.2s15.9-12.9,20.1-12.9c5.7,0,13.5,4.2,23.7,12.9c9.9,8.7,15.3,13.2,16.5,13.2
		c5.4,0,13.5-7.8,24.9-23.1c1.2-2.1,2.4-3,4.2-3c2.4,0,3.6,1.2,3.6,3.9L249.18,225.71z"/>
</g>
</svg>
