<?xml version="1.0" encoding="utf-8"?>
<!-- Generator: Adobe Illustrator 25.0.1, SVG Export Plug-In . SVG Version: 6.00 Build 0)  -->
<svg version="1.1" id="Layer_1" xmlns="http://www.w3.org/2000/svg" xmlns:xlink="http://www.w3.org/1999/xlink" x="0px" y="0px"
	 viewBox="0 0 200 200" style="enable-background:new 0 0 200 200;" xml:space="preserve">
<style type="text/css">
	.st0{enable-background:new    ;}
	.st1{fill:#D593CD;}
</style>
<g class="st0">
	<path class="st1" d="M197.4,175.7c-6.9,11.1-13.9,16.8-20.6,16.8c-2.8,0-7.5-3-14-8.7c-6.7-5.9-10.7-8.7-11.9-8.7
		s-4.6,2.8-10.5,8.7c-6.1,5.7-10.7,8.7-13.9,8.7c-2.4,0-7.1-3-14-8.7c-7.1-5.9-11.5-8.7-13.1-8.7c-1,0-4.6,2.8-10.9,8.7
		c-6.5,5.7-11.9,8.7-15.8,8.7c-2.8,0-7.5-3-13.9-8.7c-6.7-5.9-10.7-8.7-11.9-8.7c-1.2,0-4.7,2.8-10.7,8.7
		c-5.9,5.7-10.5,8.7-13.7,8.7c-4.7,0-11.1-5.3-19.2-15.8c-1.6-2-2.4-3.2-2.4-3.6c0-1.8,0.6-2.6,2.2-2.6c0.4,0,1.4,1,3.4,3.2
		c7.9,9.3,13.5,14,16.2,14c1.4,0,5.1-3,11.1-8.7s10.3-8.5,13.1-8.5c3.2,0,7.9,2.8,14.6,8.5c6.5,5.7,10.5,8.7,11.9,8.7
		c1.8,0,5.7-3,11.9-8.7c6.1-5.7,10.9-8.5,14-8.5c3.6,0,9.1,2.8,16.2,8.5s10.9,8.7,11.3,8.7c1,0,4.6-3,10.7-8.7s10.5-8.5,13.3-8.5
		c3.8,0,8.9,2.8,15.6,8.5c6.5,5.7,10.1,8.7,10.9,8.7c3.6,0,8.9-5.1,16.4-15.2c0.8-1.4,1.6-2,2.8-2c1.6,0,2.4,0.8,2.4,2.6
		L197.4,175.7z"/>
</g>
</svg>
